<svg width="80" height="45" viewBox="0 0 80 45" fill="none" xmlns="http://www.w3.org/2000/svg">
<path d="M25.1534 23.7096C25.1859 23.7292 25.2047 23.7719 25.2568 23.8393C24.611 23.7719 24.0505 23.5397 23.4824 23.3417C21.626 22.6939 19.8165 21.9514 18.1728 20.8436C16.2574 19.5532 14.7418 17.9026 13.6833 15.8603C12.3395 13.2657 11.7167 10.5142 12.0772 7.58168C12.09 7.48268 12.1003 7.38453 12.108 7.28553C12.1447 6.79308 12.3062 6.65311 12.7923 6.73334C13.5791 6.86307 14.3548 7.03376 15.1024 7.32564C16.7128 7.9555 18.2403 8.73812 19.5858 9.83482C20.0284 10.1967 20.441 10.6055 20.8673 11.1603C20.1215 10.8504 19.4867 10.5782 18.846 10.3222C17.5201 9.79215 16.1421 9.45589 14.735 9.22374C14.4181 9.17168 14.3104 9.23228 14.3224 9.57537C14.4334 12.8996 15.5774 15.8219 17.7978 18.2901C19.5269 20.2129 21.6977 21.5853 23.8779 22.9329C24.3017 23.1949 24.7297 23.4493 25.1534 23.7096Z" fill="#483434"/>
<path d="M18.1258 22.3364C18.1437 22.3466 18.1454 22.3833 18.1565 22.4141C18.0404 22.525 17.8891 22.4892 17.7567 22.4909C15.9738 22.5182 14.2019 22.4328 12.4651 21.9856C10.1567 21.3925 8.33185 19.3305 8.49417 16.6762C8.55653 15.6555 8.5984 14.6356 8.77439 13.6259C8.79831 13.4902 8.76072 13.3195 8.93927 13.27C9.13149 13.2163 9.21094 13.375 9.30407 13.5005C10.7496 15.4566 12.2737 17.3479 13.8798 19.1752C15.0067 20.4571 16.336 21.4514 17.8652 22.1922C17.9541 22.2348 18.0412 22.2843 18.1258 22.3364Z" fill="#483434"/>
<path d="M17.4449 37.9931C17.5406 37.9965 17.6354 38.0204 17.7935 38.0443C17.5449 38.2517 17.2954 38.3157 17.0528 38.3558C13.8807 38.8901 10.7171 39.0847 7.59373 38.0605C6.07133 37.5613 4.77275 36.666 3.48785 35.7408C2.55237 35.0683 1.78689 34.2404 1.11454 33.3136C0.939406 33.072 0.922319 32.9372 1.24013 32.7844C2.74545 32.0581 4.30373 31.4957 5.94574 31.1748C6.05851 31.1526 6.1952 31.1065 6.25159 31.2345C6.31139 31.3711 6.15847 31.4248 6.07901 31.4906C5.43998 32.012 4.79582 32.5275 4.15337 33.0447C4.00899 33.1608 3.8928 33.253 4.11663 33.4305C6.37546 35.2262 8.853 36.5798 11.7082 37.1473C13.6047 37.5246 15.5031 37.9095 17.4449 37.9931Z" fill="#483434"/>
<path d="M36.1545 33.0108C35.8863 33.0108 35.741 32.8853 35.6009 32.7838C34.211 31.7724 32.6766 31.0171 31.1046 30.3523C29.5652 29.7019 27.9325 29.3554 26.2743 29.1489C23.4764 28.8007 20.6614 28.665 17.8533 28.4499C16.2352 28.3261 14.7179 27.8012 13.2211 27.1919C12.0276 26.7054 10.9145 26.09 9.84315 25.3859C9.72611 25.3091 9.586 25.1214 9.44589 25.2332C9.28442 25.3629 9.42197 25.5558 9.4869 25.7034C10.1029 27.1082 11.0324 28.3193 11.8764 29.585C13.7295 32.363 16.2694 34.2381 19.4004 35.3365C20.7665 35.8161 22.1915 36.0005 23.6302 36.0978C24.7929 36.1771 25.9548 36.2659 27.1184 36.1806C24.1735 36.9888 21.2338 37.2184 18.2121 36.574C15.157 35.922 12.6188 34.4147 10.4677 32.2461C7.6501 29.4058 6.24304 25.9287 6.12514 21.9311C6.10976 21.4199 6.08755 20.9078 6.14992 20.3974C6.16017 20.3155 6.19178 20.2353 6.23449 20.0791C6.71548 20.5801 7.18365 21.0222 7.65609 21.4592C9.23914 22.9228 11.1212 23.6415 13.2536 23.7831C15.9507 23.9615 18.6512 24.1151 21.3244 24.541C23.4038 24.8722 25.4866 25.1845 27.5122 25.7871C28.7647 26.1592 29.8291 26.8846 30.8432 27.6579C32.6373 29.026 34.1529 30.6902 35.6368 32.3792C35.8026 32.567 35.9555 32.7667 36.1545 33.0108Z" fill="#483434"/>
<path d="M37.4659 34.2371C37.2028 34.5819 36.9209 34.7312 36.6723 34.9164C36.422 35.1025 36.1657 35.2843 35.8983 35.4464C34.1221 36.5218 32.3366 37.5801 30.4819 38.5206C29.3713 39.0839 28.2017 39.3928 26.9723 39.5115C26.7596 39.532 26.5469 39.5516 26.335 39.5789C26.2419 39.5908 26.1155 39.5712 26.0881 39.6941C26.0659 39.7906 26.1684 39.8358 26.2334 39.8861C27.1364 40.5979 28.1334 41.1134 29.2388 41.4565C31.7095 42.2212 33.7403 41.314 35.5975 39.8153C36.8901 38.7715 37.8948 37.4538 38.8457 36.0993C38.9012 36.0208 38.9619 35.9457 39.0763 35.7955C39.3198 37.231 39.014 38.4617 38.2682 39.578C37.2729 41.0673 36.1118 42.3953 34.5425 43.329C33.4301 43.9905 32.2033 44.2823 30.9594 44.5136C28.2923 45.0078 25.8959 44.2132 23.6345 42.8767C22.8238 42.3979 22.183 41.7279 21.7251 40.9052C21.3595 40.248 21.0434 39.5627 20.6974 38.8944C20.5427 38.5957 20.6273 38.4805 20.9562 38.4805C21.767 38.4796 22.5786 38.4788 23.3902 38.4574C25.7319 38.396 27.9779 37.8412 30.194 37.1303C32.5553 36.3733 34.85 35.4524 37.0952 34.4043C37.1832 34.3634 37.2729 34.3241 37.4659 34.2371Z" fill="#483434"/>
<path d="M59.2648 38.3679C59.4186 38.5787 59.1777 38.828 59.0504 39.008C57.9398 40.5741 56.8582 42.188 55.2025 43.2404C53.5845 44.2697 51.7964 44.7988 49.8536 44.7186C49.0429 44.6853 48.2287 44.7041 47.4282 44.5573C45.4248 44.1911 43.84 43.1021 42.4799 41.6452C41.6119 40.7158 40.9917 39.6379 40.6688 38.4021C40.4355 37.5076 40.5893 36.6252 40.7679 35.7043C40.9849 35.7845 41.1412 35.9057 41.2113 36.0696C41.7341 37.2832 42.7337 38.1059 43.5982 39.0456C45.0702 40.6467 46.8788 41.2911 49.0352 41.1724C50.3893 41.0982 51.7007 40.9454 52.9027 40.2737C53.0206 40.208 53.2256 40.1824 53.2009 40.0185C53.1778 39.8649 52.9796 39.8624 52.8437 39.8376C50.1894 39.3528 47.8383 38.1938 45.6409 36.6653C44.6568 35.9808 43.7161 35.2511 42.843 34.4326C42.773 34.3669 42.6747 34.3182 42.685 34.1211C43.1642 34.2935 43.629 34.4437 44.0801 34.6263C46.2167 35.4883 48.3039 36.4767 50.4807 37.2379C53.1129 38.158 55.8023 38.7033 58.613 38.3133C58.8334 38.2826 59.1452 38.2049 59.2648 38.3679Z" fill="#483434"/>
<path d="M62.4318 38.193C62.3541 38.1691 62.278 38.1375 62.2012 38.1094C62.2029 38.0709 62.2046 38.0325 62.2054 37.995C62.7821 37.9532 63.3588 37.9037 63.9354 37.8721C66.4386 37.7347 68.8743 37.2491 71.2433 36.4408C72.5248 36.0039 73.5901 35.1692 74.7161 34.4514C75.2116 34.1356 75.6285 33.7277 76.0642 33.341C76.3214 33.1123 76.3077 32.9339 76.0429 32.7248C75.3859 32.2034 74.7383 31.6691 74.0882 31.1399C73.9797 31.052 73.8507 30.9821 73.7832 30.8054C73.9387 30.7439 74.0736 30.7986 74.2155 30.8404C75.8088 31.3098 77.256 32.1163 78.7579 32.7974C78.9869 32.9006 79.1124 33.0184 78.9031 33.2745C77.9933 34.3865 77.092 35.4995 75.9788 36.428C74.0711 38.018 71.8234 38.7435 69.4099 38.8681C67.0657 38.9893 64.7111 38.8928 62.4318 38.193Z" fill="#483434"/>
<path d="M74.8579 19.4543C75.0553 19.526 74.9656 19.782 74.957 19.9536C74.7999 23.2462 74.0096 26.346 72.2138 29.1573C70.7521 31.4463 68.9366 33.3879 66.6308 34.8201C64.4711 36.1626 62.1165 36.9238 59.539 37.022C57.9619 37.0826 56.4139 37.0211 54.877 36.6704C54.8078 36.655 54.7377 36.6388 54.6711 36.6157C54.6489 36.6081 54.6343 36.5782 54.5865 36.527C55.422 36.4357 56.2302 36.3307 57.041 36.2607C59.9115 36.0141 62.4796 34.9643 64.8111 33.318C65.7705 32.6403 66.5069 31.7228 67.2391 30.8131C68.2711 29.5311 69.0494 28.0922 69.8473 26.6652C70.0131 26.3682 70.2335 26.0994 70.3198 25.7605C70.3411 25.6795 70.3787 25.5882 70.2864 25.5318C70.2087 25.4832 70.16 25.566 70.1053 25.6035C67.8542 27.1176 65.3177 27.8515 62.6941 28.3952C60.1037 28.932 57.4844 29.0984 54.8531 29.2009C51.399 29.3357 48.1953 30.3223 45.2205 32.0685C44.8703 32.2742 44.5149 32.4713 44.1629 32.6727C44.1381 32.6437 44.1133 32.6156 44.0894 32.5874C44.7823 31.6921 45.505 30.825 46.3175 30.0287C48.1372 28.2467 50.361 27.1013 52.6105 25.9987C54.2815 25.1802 56.0935 24.9071 57.9133 24.6357C60.5933 24.2363 63.304 24.2508 65.9909 23.9478C67.4415 23.7848 68.8751 23.5236 70.201 22.9177C71.843 22.1683 73.3014 21.1339 74.5068 19.7701C74.6128 19.6506 74.6837 19.3903 74.8579 19.4543Z" fill="#483434"/>
<path d="M72.3205 13.3948C72.3342 14.372 72.4965 15.3441 72.318 16.3273C72.1941 17.0092 72.277 17.7141 72.1847 18.408C71.9634 20.068 70.9494 21.0751 69.532 21.8048C68.0045 22.5917 66.3728 22.6497 64.7137 22.6087C63.9038 22.5883 63.0939 22.6036 62.284 22.5985C62.1499 22.5976 62.0047 22.6497 61.8603 22.5413C62.2396 22.0523 62.8351 21.9302 63.3314 21.664C65.0307 20.7533 66.6436 19.7403 67.9815 18.3227C69.4483 16.7677 70.7255 15.0684 71.931 13.3103C71.9984 13.213 72.0232 13.0286 72.1821 13.0679C72.3231 13.1029 72.3188 13.2753 72.3205 13.3948Z" fill="#483434"/>
<path d="M54.6455 23.9938C55.4862 23.4552 56.4208 23.1326 57.2452 22.6018C59.0709 21.4265 60.9581 20.3273 62.5395 18.8184C64.1003 17.3291 65.2186 15.5334 65.8132 13.4586C66.125 12.3696 66.2882 11.2371 66.2831 10.09C66.2814 9.75374 66.1695 9.67522 65.8397 9.65729C64.0926 9.56171 62.4617 10.0217 60.8573 10.6337C60.7326 10.6806 60.6155 10.7847 60.4318 10.7156C61.1085 9.97052 61.9645 9.52927 62.8325 9.11705C64.4241 8.36174 66.0191 7.61325 67.6765 7.00729C67.8226 6.95352 67.9687 6.89634 68.1182 6.85282C68.7991 6.65055 68.8042 6.6514 68.9144 7.38623C69.5073 11.3361 68.5539 14.8173 65.7731 17.749C64.0678 19.5472 62.0354 20.8761 59.8287 21.977C58.1952 22.7921 56.4951 23.4254 54.7634 23.9852C54.7275 23.9972 54.6848 23.9912 54.6455 23.9938Z" fill="#483434"/>
<path d="M49.7033 25.8261C49.6674 25.8483 49.6298 25.8714 49.5896 25.8833C49.5674 25.8893 49.5384 25.8731 49.4384 25.8492C50.0288 25.0734 50.5952 24.3181 51.1736 23.5713C52.42 21.96 53.6049 20.3068 54.408 18.4224C55.0351 16.9501 55.4306 15.4003 55.5733 13.812C55.7091 12.2996 55.3512 10.8445 54.7138 9.4704C54.0125 7.95806 53.1769 6.52169 52.174 5.18687C52.0125 4.9718 51.8245 4.77636 51.6434 4.57665C51.0821 3.95703 51.0745 3.94509 50.3201 4.3428C49.3146 4.87195 48.327 5.43438 47.3001 6.11288C47.5743 5.23467 48.0579 4.59628 48.5166 3.95277C49.3564 2.77328 50.2159 1.60916 51.2539 0.587566C51.4606 0.384442 51.6434 0.360546 51.8416 0.51929C52.8822 1.35312 54.0466 2.06747 54.7523 3.24439C55.8381 5.05117 56.7873 6.92111 57.2734 8.99758C57.5732 10.2769 57.7757 11.5665 57.8065 12.8766C57.8475 14.6236 57.4468 16.2955 56.7522 17.8864C55.2657 21.2908 52.854 23.8896 49.7033 25.8261Z" fill="#483434"/>
<path d="M51.1427 15.5359C51.5331 17.9052 51.164 20.2215 50.0611 22.373C48.7993 24.8353 47.2803 27.1336 45.4444 29.2144C44.8993 29.8332 44.2731 30.364 43.635 30.8889C43.8725 30.4613 44.2236 30.1216 44.5106 29.735C45.2795 28.698 45.7725 27.5151 46.3696 26.3877C47.5938 24.0748 47.9723 21.581 47.9142 19.0027C47.8869 17.7976 47.5802 16.6472 47.0872 15.5462C46.2526 13.6848 45.071 12.0547 43.7238 10.5389C42.7883 9.4866 41.7965 8.48719 40.7687 7.52449C40.5304 7.30003 40.3595 7.29405 40.1237 7.50827C38.5594 8.93355 36.8978 10.2632 35.4959 11.8515C33.3772 14.2515 32.0897 17.0329 32.1358 20.288C32.1709 22.74 32.8278 25.0375 34.0358 27.2011C34.9329 28.8064 36.0255 30.2394 37.2703 31.5742C37.2985 31.6049 37.3215 31.6399 37.3472 31.6732C35.6838 30.5373 34.3408 29.0889 33.2182 27.4324C32.5092 26.386 31.7001 25.3994 31.1337 24.2669C30.5323 23.0643 29.7463 21.9292 29.5293 20.568C29.2593 18.8687 29.0611 17.1558 29.3695 15.4412C29.5695 14.3249 30.0316 13.2854 30.622 12.332C31.654 10.6652 32.7689 9.04365 34.2075 7.6892C35.624 6.35524 37.1609 5.16125 38.6996 3.97152C39.1822 3.59856 39.682 3.24608 40.151 2.85605C40.345 2.69474 40.4825 2.70669 40.6781 2.82361C41.7913 3.48931 42.849 4.23097 43.8383 5.06907C45.3359 6.33732 46.889 7.55606 48.0688 9.14265C49.5041 11.0706 50.7463 13.1317 51.1427 15.5359Z" fill="#483434"/>
<path d="M33.331 6.1104C32.3955 5.76048 31.5814 5.21085 30.7253 4.73974C29.5037 4.06721 29.8668 3.96309 28.8706 4.99663C27.1227 6.81109 25.8608 8.93621 25.1133 11.3182C24.0753 14.6237 24.6716 17.7209 26.6545 20.551C27.3721 21.5751 28.1291 22.5694 28.8057 23.6235C29.1953 24.2303 29.6908 24.7688 30.1282 25.3457C30.2239 25.4729 30.3614 25.5915 30.3597 25.822C29.76 25.5548 29.2978 25.1332 28.8202 24.7517C27.0176 23.3094 25.4798 21.646 24.3982 19.5721C23.7447 18.32 23.1193 17.0834 22.863 15.6717C22.5068 13.7062 22.5982 11.7834 23.1116 9.8571C23.9753 6.61992 25.4977 3.73692 27.6746 1.19446C27.9326 0.893183 28.2085 0.605566 28.5314 0.366597C28.6434 0.283811 28.716 0.217241 28.851 0.344407C30.6416 2.0317 32.1709 3.92297 33.331 6.1104Z" fill="#483434"/>
</svg>
